
<svg width="197" height="118" viewBox="0 0 197 118" version="1.1" xmlns="http://www.w3.org/2000/svg" xmlns:xlink="http://www.w3.org/1999/xlink"><title>Group@2x</title><defs><path id="path-1" d="M18.522.7H0v50.032h18.522V.701z"/><path id="path-3" d="M.403 50.66H33.55V.067H.403V50.66z"/></defs><g id="Symbols" stroke="none" stroke-width="1" fill="none" fill-rule="evenodd"><g id="HEADER" transform="translate(0 -46)"><g id="Group" transform="translate(0 46)"><path d="M146.746 118H197V0H0v118h115v-8l31.746 8z" id="Combined-Shape" fill="#005499"/><g id="Page-1" transform="translate(12.356 47.448)"><g id="Group-3" transform="translate(0 .091)"><mask id="mask-2" fill="#fff"><use xlink:href="#path-1"/></mask><path d="M17.618 18.29h-7.103v32.442H6.128V18.29H0v-3.715h6.128V11.28C6.058 5.044 7.798.7 14.832.7c1.253 0 2.297.07 3.69.28v3.784c-1.183-.21-2.158-.35-3.203-.35-4.874 0-4.735 3.083-4.804 7.007v3.152h7.103v3.715z" id="Fill-1" fill="#FFF" mask="url(#mask-2)"/></g><path d="M46.655 31.063h-.139c-.558 1.05-2.507 1.401-3.69 1.611-7.453 1.332-16.714 1.26-16.714 8.34 0 4.413 3.9 7.146 8.008 7.146 6.685 0 12.605-4.274 12.535-11.35v-5.747zm-23.398-5.325c.418-8.479 6.338-12.122 14.553-12.122 6.338 0 13.232 1.962 13.232 11.63v19.202c0 1.68.836 2.66 2.577 2.66.487 0 1.044-.14 1.392-.28v3.715c-.975.21-1.672.28-2.855.28-4.457 0-5.153-2.524-5.153-6.306h-.14c-3.063 4.696-6.197 7.357-13.09 7.357-6.617 0-12.049-3.294-12.049-10.58 0-10.16 9.82-10.511 19.29-11.632 3.621-.421 5.641-.911 5.641-4.905 0-5.956-4.248-7.427-9.4-7.427-5.433 0-9.471 2.521-9.611 8.408h-4.387z" id="Fill-4" fill="#FFF"/><path d="M75.97 48.16c9.332 0 12.606-7.917 12.606-15.416 0-7.498-3.274-15.414-12.605-15.414-8.357 0-11.768 7.916-11.768 15.414 0 7.499 3.411 15.416 11.768 15.416zm16.992 2.663h-4.039v-6.867h-.139c-1.88 4.695-7.59 7.919-12.813 7.919-10.933 0-16.155-8.9-16.155-19.13 0-10.23 5.222-19.13 16.155-19.13 5.361 0 10.584 2.733 12.465 7.917h.14V.792h4.386v50.031z" id="Fill-6" fill="#FFF"/><path d="M104.103 32.744c0 7.709 4.178 15.416 12.603 15.416s12.604-7.707 12.604-15.416c0-7.708-4.179-15.414-12.604-15.414-8.425 0-12.603 7.706-12.603 15.414m29.595 0c0 10.371-5.989 19.13-16.992 19.13-11.002 0-16.99-8.759-16.99-19.13 0-10.37 5.988-19.129 16.99-19.129 11.003 0 16.992 8.759 16.992 19.13" id="Fill-8" fill="#FFF"/><g id="Group-12" transform="translate(138.448 13.548)"><mask id="mask-4" fill="#fff"><use xlink:href="#path-3"/></mask><path d="M16.559 34.612c9.33 0 12.603-7.917 12.603-15.416 0-7.497-3.274-15.414-12.603-15.414-8.356 0-11.77 7.917-11.77 15.414 0 7.499 3.414 15.416 11.77 15.416zM33.55 50.66h-4.388V30.408h-.14c-1.878 5.186-7.102 7.919-12.463 7.919-10.933 0-16.156-8.9-16.156-19.13C.403 8.966 5.626.066 16.559.066c5.222 0 10.932 3.224 12.813 7.918h.139V1.117h4.04V50.66z" id="Fill-10" fill="#FFF" mask="url(#mask-4)"/></g></g></g></g></g></svg>