<?xml version="1.0" encoding="utf-8"?>
<!-- Generator: Adobe Illustrator 24.0.2, SVG Export Plug-In . SVG Version: 6.00 Build 0)  -->
<svg version="1.1" xmlns="http://www.w3.org/2000/svg" xmlns:xlink="http://www.w3.org/1999/xlink" x="0px" y="0px"
	 viewBox="0 0 480 480" style="enable-background:new 0 0 480 480;" xml:space="preserve">
<style type="text/css">
	.st0{fill:none;stroke:#000000;stroke-miterlimit:10;}
	.st1{fill-rule:evenodd;clip-rule:evenodd;}
	.st2{stroke:#000000;stroke-miterlimit:10;}
	.st3{opacity:0.15;}
	.st4{fill:#6366F1;}
	.st5{fill:#1B1464;}
</style>
<g id="Layer_1">
	<g>
		<g>
			<line class="st0" x1="79.5" y1="407.5" x2="402.5" y2="407.5"/>
			<line class="st1" x1="79.5" y1="407.5" x2="402.5" y2="407.5"/>
		</g>
		<line class="st2" x1="402.5" y1="407.5" x2="389.5" y2="425.5"/>
		<line class="st2" x1="389.5" y1="425.5" x2="94.5" y2="425.5"/>
		<line class="st2" x1="79.5" y1="407.5" x2="94.5" y2="425.5"/>
	</g>
	<g>
		<path d="M388,91c0.6,0,1,0.4,1,1v296c0,0.6-0.4,1-1,1H92c-0.6,0-1-0.4-1-1V92c0-0.6,0.4-1,1-1H388 M388,90H92c-1.1,0-2,0.9-2,2
			v296c0,1.1,0.9,2,2,2h296c1.1,0,2-0.9,2-2V92C390,90.9,389.1,90,388,90L388,90z"/>
	</g>
	<g>
		<path d="M410,69c0.6,0,1,0.4,1,1v318c0,0.6-0.4,1-1,1H69c-0.6,0-1-0.4-1-1V70c0-0.6,0.4-1,1-1H410 M410,68H69c-1.1,0-2,0.9-2,2
			v318c0,1.1,0.9,2,2,2h341c1.1,0,2-0.9,2-2V70C412,68.9,411.1,68,410,68L410,68z"/>
	</g>
	<g>
		<path d="M425,390c0.6,0,1,0.4,1,1v15c0,0.6-0.4,1-1,1H50c-0.6,0-1-0.4-1-1v-15c0-0.6,0.4-1,1-1H425 M425,389H50c-1.1,0-2,0.9-2,2
			v15c0,1.1,0.9,2,2,2h375c1.1,0,2-0.9,2-2v-15C427,389.9,426.1,389,425,389L425,389z"/>
	</g>
</g>
<g id="Layer_2" class="st3">
	<g>
		<rect x="37.4" y="252.5" class="st4" width="395.8" height="22.6"/>
	</g>
	<g>
		<rect x="37.4" y="209.8" class="st4" width="395.8" height="22.6"/>
	</g>
	<g>
		<rect x="37.3" y="167.7" class="st4" width="395.8" height="22.6"/>
	</g>
	<g>
		<rect x="37.3" y="125.8" class="st4" width="396" height="22.6"/>
	</g>
	<g>
		<rect x="37.3" y="84.8" class="st4" width="396" height="22.6"/>
	</g>
	<g>
		<path class="st5" d="M432.8,64.5v210H38.3v-210H432.8 M433.8,63.5H37.3v212h396.5V63.5L433.8,63.5z"/>
	</g>
	<g>
		<path class="st4" d="M32.8,64c-1,0-1.8-0.8-1.8-1.8V34.8c0-1,0.8-1.8,1.8-1.8h404.1c1,0,1.8,0.8,1.8,1.8v27.3c0,1-0.8,1.8-1.8,1.8
			H32.8z"/>
		<path class="st5" d="M436.9,33.5c0.7,0,1.3,0.6,1.3,1.3v27.3c0,0.7-0.6,1.3-1.3,1.3H32.8c-0.7,0-1.3-0.6-1.3-1.3V34.8
			c0-0.7,0.6-1.3,1.3-1.3H436.9 M436.9,32.5H32.8c-1.3,0-2.3,1-2.3,2.3v27.3c0,1.3,1,2.3,2.3,2.3h404.1c1.3,0,2.3-1,2.3-2.3V34.8
			C439.2,33.5,438.2,32.5,436.9,32.5L436.9,32.5z"/>
	</g>
</g>
<g id="Layer_3">
	<rect x="59" y="257" transform="matrix(6.123234e-17 -1 1 6.123234e-17 -19.0398 498.9602)" class="st4" width="362" height="4"/>
	<polygon class="st4" points="239.6,450.1 233.8,436.5 245.5,436.5 	"/>
	<polygon class="st4" points="240.3,64.4 246.1,78 234.5,78 	"/>
</g>
</svg>
