<?xml version="1.0" encoding="utf-8"?>
<!-- Generator: Adobe Illustrator 24.0.2, SVG Export Plug-In . SVG Version: 6.00 Build 0)  -->
<svg version="1.1" xmlns="http://www.w3.org/2000/svg" xmlns:xlink="http://www.w3.org/1999/xlink" x="0px" y="0px"
	 viewBox="0 0 480 480" style="enable-background:new 0 0 480 480;" xml:space="preserve">
<style type="text/css">
	.st0{fill:none;stroke:#000000;stroke-miterlimit:10;}
	.st1{fill-rule:evenodd;clip-rule:evenodd;}
	.st2{stroke:#000000;stroke-miterlimit:10;}
	.st3{fill:#6366F1;}
	.st4{fill:#1B1464;}
</style>
<g id="Layer_1">
	<g>
		<path d="M388,91c0.6,0,1,0.4,1,1v296c0,0.6-0.4,1-1,1H92c-0.6,0-1-0.4-1-1V92c0-0.6,0.4-1,1-1H388 M388,90H92c-1.1,0-2,0.9-2,2
			v296c0,1.1,0.9,2,2,2h296c1.1,0,2-0.9,2-2V92C390,90.9,389.1,90,388,90L388,90z"/>
	</g>
	<g>
		<path d="M410,69c0.6,0,1,0.4,1,1v318c0,0.6-0.4,1-1,1H69c-0.6,0-1-0.4-1-1V70c0-0.6,0.4-1,1-1H410 M410,68H69c-1.1,0-2,0.9-2,2
			v318c0,1.1,0.9,2,2,2h341c1.1,0,2-0.9,2-2V70C412,68.9,411.1,68,410,68L410,68z"/>
	</g>
	<g>
		<path d="M425,390c0.6,0,1,0.4,1,1v15c0,0.6-0.4,1-1,1H50c-0.6,0-1-0.4-1-1v-15c0-0.6,0.4-1,1-1H425 M425,389H50c-1.1,0-2,0.9-2,2
			v15c0,1.1,0.9,2,2,2h375c1.1,0,2-0.9,2-2v-15C427,389.9,426.1,389,425,389L425,389z"/>
	</g>
	<g>
		<g>
			<line class="st0" x1="78" y1="407.5" x2="401" y2="407.5"/>
			<line class="st1" x1="78" y1="407.5" x2="401" y2="407.5"/>
		</g>
		<line class="st2" x1="401" y1="407.5" x2="388" y2="425.5"/>
		<line class="st2" x1="388" y1="425.5" x2="93" y2="425.5"/>
		<line class="st2" x1="78" y1="407.5" x2="93" y2="425.5"/>
	</g>
</g>
<g id="Layer_2">
	<g>
		<rect x="40.2" y="253.8" class="st3" width="395.8" height="22.6"/>
	</g>
	<g>
		<rect x="40.2" y="211.1" class="st3" width="395.8" height="22.6"/>
	</g>
	<g>
		<rect x="40" y="169" class="st3" width="395.8" height="22.6"/>
	</g>
	<g>
		<rect x="40" y="127.1" class="st3" width="396" height="22.6"/>
	</g>
	<g>
		<rect x="40" y="86.1" class="st3" width="396" height="22.6"/>
	</g>
	<g>
		<path class="st4" d="M435.5,65.8v210H41v-210H435.5 M436.5,64.8H40v212h396.5V64.8L436.5,64.8z"/>
	</g>
	<g>
		<path class="st3" d="M35.5,65.3c-1,0-1.8-0.8-1.8-1.8V36.1c0-1,0.8-1.8,1.8-1.8h404.1c1,0,1.8,0.8,1.8,1.8v27.3
			c0,1-0.8,1.8-1.8,1.8H35.5z"/>
		<path class="st4" d="M439.7,34.8c0.7,0,1.3,0.6,1.3,1.3v27.3c0,0.7-0.6,1.3-1.3,1.3H35.5c-0.7,0-1.3-0.6-1.3-1.3V36.1
			c0-0.7,0.6-1.3,1.3-1.3H439.7 M439.7,33.8H35.5c-1.3,0-2.3,1-2.3,2.3v27.3c0,1.3,1,2.3,2.3,2.3h404.1c1.3,0,2.3-1,2.3-2.3V36.1
			C442,34.8,441,33.8,439.7,33.8L439.7,33.8z"/>
	</g>
</g>
</svg>
